<svg width="15" height="15" viewBox="0 0 15 15" fill="none" xmlns="http://www.w3.org/2000/svg">
<g clip-path="url(#clip0)">
<path d="M7.5 3.51562C7.25754 3.51562 7.06055 3.71262 7.06055 3.95508V5.71289C7.06055 5.95535 7.25754 6.15234 7.5 6.15234C7.74246 6.15234 7.93945 5.95535 7.93945 5.71289V3.95508C7.93945 3.71262 7.74246 3.51562 7.5 3.51562Z" fill="white"/>
<path d="M7.93945 0V2.71767C8.44986 2.89969 8.81836 3.38291 8.81836 3.95508V5.71289C8.81836 5.83819 8.79513 5.95708 8.76234 6.07198C9.82245 5.83664 10.7972 5.30985 11.5838 4.52326L12.237 3.87009C11.8174 1.80501 10.077 0.193828 7.93945 0Z" fill="white"/>
<path d="M12.2052 5.14472C10.9079 6.44204 9.20417 7.09047 7.5 7.09047C5.79583 7.09047 4.0921 6.44202 2.79478 5.14469L2.66602 5.01596V10.166C2.66602 12.8315 4.83454 15 7.5 15C10.1655 15 12.334 12.8315 12.334 10.166V5.01596L12.2052 5.14472Z" fill="#FFFBFB"/>
<path d="M2.763 3.87012L3.41617 4.52329C4.20277 5.30988 5.17753 5.83667 6.23764 6.07201C6.20485 5.95708 6.18162 5.83819 6.18162 5.71289V3.95508C6.18162 3.38291 6.55012 2.89969 7.06053 2.71767V0C4.92303 0.193828 3.18259 1.80501 2.763 3.87012Z" fill="#00D015"/>
</g>
<defs>
<clipPath id="clip0">
<rect width="15" height="15" fill="white"/>
</clipPath>
</defs>
</svg>
